<?xml version="1.0" encoding="UTF-8" standalone="no"?>
<!-- Generator: Adobe Illustrator 17.0.0, SVG Export Plug-In . SVG Version: 6.00 Build 0)  -->

<svg
   xmlns:dc="http://purl.org/dc/elements/1.1/"
   xmlns:cc="http://creativecommons.org/ns#"
   xmlns:rdf="http://www.w3.org/1999/02/22-rdf-syntax-ns#"
   xmlns:svg="http://www.w3.org/2000/svg"
   xmlns="http://www.w3.org/2000/svg"
   xmlns:sodipodi="http://sodipodi.sourceforge.net/DTD/sodipodi-0.dtd"
   xmlns:inkscape="http://www.inkscape.org/namespaces/inkscape"
   version="1.1"
   id="Layer_1"
   x="0px"
   y="0px"
   width="234px"
   height="234px"
   viewBox="0 0 234 234"
   enable-background="new 0 0 234 234"
   xml:space="preserve"
   inkscape:version="0.48.4 r9939"
   sodipodi:docname="12geeks-logo.svg"><metadata
     id="metadata21"><rdf:RDF><cc:Work
         rdf:about=""><dc:format>image/svg+xml</dc:format><dc:type
           rdf:resource="http://purl.org/dc/dcmitype/StillImage" /><dc:title></dc:title></cc:Work></rdf:RDF></metadata><defs
     id="defs19" /><sodipodi:namedview
     pagecolor="#ffffff"
     bordercolor="#666666"
     borderopacity="1"
     objecttolerance="10"
     gridtolerance="10"
     guidetolerance="10"
     inkscape:pageopacity="0"
     inkscape:pageshadow="2"
     inkscape:window-width="1317"
     inkscape:window-height="744"
     id="namedview17"
     showgrid="false"
     inkscape:zoom="2.8526017"
     inkscape:cx="126.24947"
     inkscape:cy="81.871012"
     inkscape:window-x="49"
     inkscape:window-y="24"
     inkscape:window-maximized="1"
     inkscape:current-layer="Layer_1" /><path
     fill="none"
     d="M37.981,32.818c1.779-0.187,3.396-0.327,4.85-0.422c1.452-0.092,2.741-0.141,3.866-0.141  c2.06,0,3.701,0.211,4.92,0.633c1.217,0.422,2.179,1.195,2.882,2.319c0.703,1.125,1.171,2.649,1.406,4.569  c0.233,1.922,0.351,4.336,0.351,7.24V158.07c0,2.341,1.125,3.514,3.374,3.514c0.749,0,1.827-0.024,3.233-0.07  c1.406-0.048,2.952-0.141,4.639-0.281c1.687-0.14,3.444-0.329,5.272-0.562c1.827-0.235,3.536-0.492,5.131-0.773  c2.249-0.373,3.374-1.687,3.374-3.936V26.211c0-3.374-1.5-5.061-4.498-5.061c-1.5,0-5.717,0.305-12.652,0.914  c-6.937,0.611-15.933,1.852-26.99,3.725L37.981,32.818z"
     id="path3"
     style="fill:#000000;fill-opacity:1" /><path
     fill="none"
     d="M104.248,63.885c1.779-10.776,5.458-18.953,11.035-24.53c5.575-5.575,12.768-8.364,21.578-8.364  c4.028,0,7.613,0.633,10.754,1.898c3.139,1.265,5.81,3.047,8.013,5.342c2.201,2.298,3.866,5.039,4.99,8.224  c1.125,3.187,1.687,6.655,1.687,10.403c0,5.623-1.335,11.808-4.006,18.556c-2.671,6.748-6.818,13.754-12.441,21.016  c-5.623,7.264-12.863,14.668-21.719,22.211c-8.856,7.545-19.47,14.879-31.84,22c-0.562,0.281-0.962,0.562-1.195,0.844  c-0.235,0.281-0.351,0.703-0.351,1.265c0,0.657,0.046,1.219,0.14,1.687l1.827,14.057c0.187,1.032,0.703,1.546,1.546,1.546  c6.466-0.094,11.808-0.165,16.026-0.211c4.217-0.048,8.013-0.07,11.386-0.07h40.345c3.279,0,6.98,0.022,11.105,0.07  c4.123,0.046,9.324,0.116,15.604,0.211c0.749,0,1.217-0.373,1.406-1.125c0.092-1.125,0.233-2.811,0.422-5.061  c0.187-2.249,0.398-4.78,0.633-7.591c0.233-2.812,0.444-5.715,0.633-8.716c0.187-2.998,0.373-5.856,0.562-8.575  c0.187-2.717,0.352-5.107,0.492-7.169c0.141-2.06,0.211-3.514,0.211-4.358l-6.466-0.562c-1.219,4.312-2.368,7.896-3.444,10.754  c-1.078,2.86-2.39,5.155-3.936,6.888c-1.546,1.735-3.538,2.952-5.974,3.655c-2.438,0.703-5.671,1.054-9.7,1.054h-50.045  c13.12-7.778,24.482-15.485,34.089-23.125c9.605-7.637,17.523-15.134,23.757-22.492c6.231-7.356,10.87-14.501,13.917-21.438  c3.044-6.934,4.569-13.587,4.569-19.962c0-4.779-1.008-9.208-3.022-13.284c-2.016-4.077-5.061-7.567-9.137-10.473  c-4.077-2.904-9.161-5.177-15.252-6.818c-6.093-1.639-13.214-2.46-21.367-2.46c-7.404,0-14.549,0.681-21.438,2.038  c-6.888,1.36-12.911,2.882-18.064,4.569c-1.781,0.751-2.719,1.781-2.812,3.093c-0.189,1.876-0.376,4.617-0.562,8.224  c-0.189,3.609-0.376,7.264-0.562,10.965c-0.189,3.703-0.329,7.007-0.422,9.91c-0.094,2.906-0.141,4.639-0.141,5.201L104.248,63.885z  "
     id="path5"
     style="fill:#000000;fill-opacity:1" /><path
     fill="none"
     d="M43.044,195.718H29.153v4.341h9.044v9.912c-2.098,1.302-4.558,1.953-7.018,1.953  c-7.597,0-8.899-8.971-8.899-14.832c0-5.716,1.302-15.049,8.754-15.049c3.69,0,6.439,2.315,8.248,5.354l4.124-2.677  c-2.605-4.269-7.018-7.235-12.083-7.235c-10.78,0-14.108,10.346-14.108,19.462c0,9.261,3.183,19.535,14.253,19.535  c3.835,0,8.465-1.664,11.576-4.124V195.718z"
     id="path7"
     style="fill:#000000;fill-opacity:1" /><path
     fill="none"
     d="M63.37,215.832h23.514v-4.341H68.218v-13.385h15.411v-4.341H68.218v-11.287h18.666v-4.341H63.37V215.832z"
     id="path9"
     style="fill:#000000;fill-opacity:1" /><path
     fill="none"
     d="M106.776,215.832h23.514v-4.341h-18.666v-13.385h15.411v-4.341h-15.411v-11.287h18.666v-4.341h-23.514V215.832z  "
     id="path11"
     style="fill:#000000;fill-opacity:1" /><path
     fill="none"
     d="M155.391,178.137h-4.847v37.694h4.847v-17.653h1.664l15.266,18.594l3.69-3.111l-14.687-17.726l12.517-15.845  l-3.69-2.894L157.2,194.199h-1.809V178.137z"
     id="path13"
     style="fill:#000000;fill-opacity:1" /><path
     fill="none"
     d="M191.706,205.268c1.158,6.729,5.571,11.214,12.589,11.214c6.946,0,11.938-4.052,11.938-11.214  c0-3.907-1.809-6.946-5.209-8.827l-8.031-3.545c-2.894-1.302-5.064-2.315-5.064-5.86c0-3.4,3.039-4.992,6.15-4.992  c4.124,0,6.077,2.605,6.946,6.294l4.63-1.375c-1.519-5.86-5.209-9.478-11.504-9.478c-5.933,0-11.07,3.545-11.07,9.912  c0,7.09,5.209,8.537,10.708,10.853c3.69,1.519,7.597,2.677,7.597,7.307c0,4.196-3.111,6.367-7.09,6.367  c-5.064,0-7.307-3.4-8.248-8.031L191.706,205.268z"
     id="path15"
     style="fill:#000000;fill-opacity:1" /></svg>