<?xml version="1.0" encoding="UTF-8" standalone="no"?>
<!-- Generator: Adobe Illustrator 17.0.0, SVG Export Plug-In . SVG Version: 6.00 Build 0)  -->

<svg
   xmlns:dc="http://purl.org/dc/elements/1.1/"
   xmlns:cc="http://creativecommons.org/ns#"
   xmlns:rdf="http://www.w3.org/1999/02/22-rdf-syntax-ns#"
   xmlns:svg="http://www.w3.org/2000/svg"
   xmlns="http://www.w3.org/2000/svg"
   xmlns:sodipodi="http://sodipodi.sourceforge.net/DTD/sodipodi-0.dtd"
   xmlns:inkscape="http://www.inkscape.org/namespaces/inkscape"
   sodipodi:docname="12geeks-logo.svg"
   inkscape:version="0.48.4 r9939"
   xml:space="preserve"
   enable-background="new 0 0 234 234"
   viewBox="0 0 234 234"
   height="234px"
   width="234px"
   y="0px"
   x="0px"
   id="Layer_1"
   version="1.1"><sodipodi:namedview
     pagecolor="#ffffff"
     bordercolor="#666666"
     borderopacity="1"
     objecttolerance="10"
     gridtolerance="10"
     guidetolerance="10"
     inkscape:pageopacity="0"
     inkscape:pageshadow="2"
     inkscape:window-width="1317"
     inkscape:window-height="744"
     id="namedview17"
     showgrid="false"
     inkscape:zoom="2.017094"
     inkscape:cx="114.92378"
     inkscape:cy="90.972854"
     inkscape:window-x="49"
     inkscape:window-y="24"
     inkscape:window-maximized="1"
     inkscape:current-layer="Layer_1" /><metadata
     id="metadata21"><rdf:RDF><cc:Work
         rdf:about=""><dc:format>image/svg+xml</dc:format><dc:type
           rdf:resource="http://purl.org/dc/dcmitype/StillImage" /><dc:title /></cc:Work></rdf:RDF></metadata><defs
     id="defs19" /><path
     fill="none"
     style="fill:#000000;fill-opacity:1"
     id="path3"
     d="M37.981 32.818L42.831 32.396L46.697 32.255L49.472375 32.41325L51.617 32.888L53.25075 33.78425L54.499 35.207L55.3775 37.193375L55.905 39.776L56.256 47.016L56.256 158.07L56.466921875 159.606671875L57.099625 160.704875L58.154015625 161.364140625L59.63 161.584L62.863 161.514L67.502 161.233L72.774 160.671L77.905 159.898L79.380984375 159.44190625L80.435375 158.6335L81.068078125 157.47334375L81.279 155.962L81.279 26.211L80.99778125 23.9968125L80.15425 22.41525L78.74859375 21.4663125L76.781 21.15L64.129 22.064L52.179 23.45325L37.139 25.789L37.981 32.818L37.981 32.818" /><path
     style="fill:#000000;fill-opacity:1"
     id="path5"
     d="M104.248 63.885L105.93846875 56.290328125L108.34125 49.670375L111.45615625 44.025234375L115.283 39.355L119.767609375 35.696171875L122.237416016 34.2586269531L124.858875 33.082375L130.556703125 31.513890625L136.861 30.991L142.570625 31.465625L147.615 32.889L151.9725 35.17375L155.628 38.231L158.526875 42.010375L160.618 46.455L161.883375 51.446125L162.305 56.858L162.054671875 61.180640625L161.303625 65.714125L160.051765625 70.458546875L158.299 75.414L156.019 80.52334375L153.1855 85.72925L149.7985 91.03153125L145.858 96.43L141.337578125 101.904234375L136.210875 107.430875L130.477984375 113.009828125L124.139 118.641L117.16740625 124.26015625L109.53675 129.8L101.24721875 135.26034375L92.299 140.641L91.104 141.485L90.753 142.75L90.893 144.437L92.72 158.494L93.247 159.654L94.266 160.04L110.292 159.829L121.678 159.759L162.023 159.759L173.128 159.829L188.732 160.04L189.645 159.7595L190.138 158.915L190.56 153.854L191.193 146.263L191.826 137.547L192.388 128.972L192.88 121.803L193.091 117.445L186.625 116.883L183.181 127.637L181.3885 131.503625L179.245 134.525L176.59175 136.7395L173.271 138.18L169.017625 138.970625L163.571 139.234L113.526 139.234L123.036421875 133.41375L131.887875 127.61975L140.080640625 121.851625L147.615 116.109L154.502484375 110.407484375L160.757625 104.758375L166.380703125 99.161578125L171.372 93.617L175.74675 88.139515625L179.5245 82.740875L182.70525 77.420796875L185.289 72.179L187.28709375 67.031140625L188.715 61.988375L189.57215625 57.050421875L189.858 52.217L189.66903125 48.698421875L189.10225 45.311375L188.15784375 42.056140625L186.836 38.933L185.13103125 35.985265625L183.04 33.257375L180.56271875 30.749046875L177.699 28.46L174.4524375 26.400328125L170.82825 24.577375L166.8264375 22.991234375L162.447 21.642L157.6844375 20.566171875L152.536 19.797375L147.0013125 19.335890625L141.08 19.182L130.167875 19.692125L119.642 21.22L109.959375 23.381875L101.578 25.789L99.539 27.125125L98.99415625 27.950828125L98.766 28.882L98.204 37.106L97.642 48.071L97.22 57.981L97.079 63.182L104.248 63.885L104.248 63.885"
     fill="none" /><path
     style="fill:#000000;fill-opacity:1"
     id="path7"
     d="M43.044 195.718L29.153 195.718L29.153 200.059L38.197 200.059L38.197 209.971L34.82375 211.43575L31.179 211.924L28.6154511719 211.527080078L26.583546875 210.430703125L25.0247753906 208.776443359L23.880625 206.705875L23.0925839844 204.360572266L22.602140625 201.882109375L22.28 197.092L22.599875 192.32915625L23.0849375 189.818488281L23.8625 187.424L24.989375 185.297449219L26.522375 183.59059375L28.5183125 182.455191406L31.034 182.043L33.625078125 182.452203125L35.863375 183.580375L37.748984375 185.278359375L39.282 187.397L43.406 184.72L41.1313125 181.788546875L38.287 179.501625L34.9814375 178.015140625L31.323 177.485L27.6217578125 177.947359375L24.5708125 179.244L22.1218359375 181.239265625L20.2265 183.7975L18.8364765625 186.783046875L17.9034375 190.06025L17.3790546875 193.493453125L17.215 196.947L17.373390625 200.445314453L17.8853125 203.906328125L18.805890625 207.197771484L20.19025 210.187375L22.093515625 212.742869141L24.5708125 214.731984375L27.677265625 216.022451172L31.468 216.482L34.45715625 216.1835625L37.5275 215.3425L40.46209375 214.0401875L43.044 212.358L43.044 195.718L43.044 195.718"
     fill="none" /><path
     style="fill:#000000;fill-opacity:1"
     id="path9"
     d="M63.37,215.832h23.514v-4.341H68.218v-13.385h15.411v-4.341H68.218v-11.287h18.666v-4.341H63.37V215.832z"
     fill="none" /><path
     style="fill:#000000;fill-opacity:1"
     id="path11"
     d="M106.776,215.832h23.514v-4.341h-18.666v-13.385h15.411v-4.341h-15.411v-11.287h18.666v-4.341h-23.514V215.832z  "
     fill="none" /><path
     style="fill:#000000;fill-opacity:1"
     id="path13"
     d="M155.391,178.137h-4.847v37.694h4.847v-17.653h1.664l15.266,18.594l3.69-3.111l-14.687-17.726l12.517-15.845  l-3.69-2.894L157.2,194.199h-1.809V178.137z"
     fill="none" /><path
     style="fill:#000000;fill-opacity:1"
     id="path15"
     d="M191.706 205.268L192.291558594 207.681810547L193.17465625 209.858984375L194.347675781 211.773259766L195.803 213.398375L197.533011719 214.708068359L199.53009375 215.676078125L201.786628906 216.276142578L204.295 216.482L206.802222656 216.293902344L209.09065625 215.73696875L211.124699219 214.822238281L212.86875 213.56075L214.287207031 211.963542969L215.34446875 210.04165625L216.004933594 207.806128906L216.233 205.268L215.89721875 202.50503125L214.9035 200.09475L213.27228125 198.06434375L211.024 196.441L202.993 192.896L200.98084375 191.929609375L199.37575 190.807125L198.31328125 189.264078125L197.929 187.036L198.452453125 184.821625L199.837375 183.265L201.805609375 182.345875L204.079 182.044L206.781921875 182.508671875L208.772625 183.807625L210.153015625 185.798265625L211.025 188.338L215.655 186.963L214.10190625 183.009875L213.007347656 181.38890625L211.694 180.0265L210.156777344 178.93878125L208.39059375 178.141875L206.390363281 177.65190625L204.151 177.485L201.971916016 177.649759766L199.918328125 178.138390625L198.041107422 178.942419922L196.391125 180.053375L195.019251953 181.462783203L193.976359375 183.162171875L193.313318359 185.143068359L193.081 187.397L193.315564453 189.803953125L193.980828125 191.7581875L195.019146484 193.336015625L196.372875 194.61375L199.795984375 196.5741875L203.789 198.25L206.53275 199.381453125L208.97125 200.736875L209.955210937 201.610869141L210.717875 202.675609375L211.210914062 203.976013672L211.386 205.557L211.244552734 207.035292969L210.837734375 208.32203125L209.333125 210.314L207.082453125 211.51921875L204.296 211.924L202.526267578 211.768861328L201.003203125 211.320390625L199.709005859 210.604005859L198.625875 209.645125L197.021609375 207.101546875L196.048 203.893L191.706 205.268L191.706 205.268"
     fill="none" /></svg>